<?xml version="1.0" encoding="UTF-8"?>
<svg width="24px" height="24px" viewBox="0 0 24 24" version="1.1" xmlns="http://www.w3.org/2000/svg"
    xmlns:xlink="http://www.w3.org/1999/xlink">
    <title>Icons / Add</title>
    <g id="Icons-/-Add" stroke="none" stroke-width="1" fill="none" fill-rule="evenodd">
        <path
            d="M12,1.89473684 C12.5073621,1.89473684 12.9186603,2.30603506 12.9186603,2.81339713 L12.9186603,11.0813397 L21.1866029,11.0813397 C21.6939649,11.0813397 22.1052632,11.4926379 22.1052632,12 C22.1052632,12.5073621 21.6939649,12.9186603 21.1866029,12.9186603 L12.9186603,12.9186603 L12.9186603,21.1866029 C12.9186603,21.6939649 12.5073621,22.1052632 12,22.1052632 C11.4926379,22.1052632 11.0813397,21.6939649 11.0813397,21.1866029 L11.0813397,12.9186603 L2.81339713,12.9186603 C2.30603506,12.9186603 1.89473684,12.5073621 1.89473684,12 C1.89473684,11.4926379 2.30603506,11.0813397 2.81339713,11.0813397 L11.0813397,11.0813397 L11.0813397,2.81339713 C11.0813397,2.30603506 11.4926379,1.89473684 12,1.89473684 Z"
            id="Path" fill="currentcolor" fill-rule="nonzero"></path>
    </g>
</svg>