<?xml version="1.0" encoding="UTF-8"?>
<svg width="30px" height="22px" viewBox="0 0 30 22" version="1.1" xmlns="http://www.w3.org/2000/svg" xmlns:xlink="http://www.w3.org/1999/xlink">
    <title>Discord Logo</title>
    <g id="Main-Site" stroke="none" stroke-width="1" fill="none" fill-rule="evenodd">
        <g id="Sign-up" transform="translate(-946, -827)" fill="#FFFFFF" fill-rule="nonzero">
            <g transform="translate(676, 189)" id="Oauth">
                <g transform="translate(50.7679, 572)">
                    <g id="Logos" transform="translate(0.5, 47)">
                        <g id="Discord" transform="translate(159.0004, 0)">
                            <path d="M84.5749194,20.8424658 C82.6677852,19.9693332 80.6544472,19.3499036 78.5863349,19 C78.3033339,19.5059092 78.047269,20.0264221 77.8192116,20.5593607 C75.6162742,20.2274018 73.3760303,20.2274018 71.1730929,20.5593607 C70.9449162,20.026477 70.6888543,19.5059703 70.4059696,19 C68.3365324,19.3528585 66.3218692,19.9737585 64.4128189,20.847032 C60.6228646,26.4543379 59.5954673,31.9223744 60.109166,37.3127854 L60.109166,37.3127854 C62.3286583,38.9526444 64.8129033,40.1997863 67.4539148,41 C68.0485918,40.2001809 68.5748069,39.3516685 69.0269742,38.4634703 C68.1681471,38.1427086 67.3392245,37.7469649 66.5498052,37.2808219 C66.7575678,37.130137 66.9607641,36.9748858 67.1571112,36.8242009 C71.8077863,39.0113018 77.1913675,39.0113018 81.8420427,36.8242009 C82.0406728,36.9863014 82.2438692,37.1415525 82.4493486,37.2808219 C81.6584035,37.7477201 80.8279654,38.1442218 79.9676134,38.4657534 C80.4192263,39.3535405 80.9454731,40.2013402 81.5406728,41 C84.1839387,40.2029972 86.6700898,38.9564462 88.8899879,37.3150685 L88.8899879,37.3150685 C89.4927276,31.0639269 87.8603075,25.6461187 84.5749194,20.8424658 Z M69.6776591,33.9977169 C68.2461523,33.9977169 67.0635039,32.6986301 67.0635039,31.1004566 C67.0635039,29.5022831 68.2050564,28.1917808 69.6730929,28.1917808 C71.1411294,28.1917808 72.3146454,29.5022831 72.2895313,31.1004566 C72.2644171,32.6986301 71.1365632,33.9977169 69.6776591,33.9977169 Z M79.3214947,33.9977169 C77.8877048,33.9977169 76.7096226,32.6986301 76.7096226,31.1004566 C76.7096226,29.5022831 77.8511751,28.1917808 79.3214947,28.1917808 C80.7918144,28.1917808 81.9561979,29.5022831 81.9310838,31.1004566 C81.9059696,32.6986301 80.7803988,33.9977169 79.3214947,33.9977169 Z" id="Discord-Logo"></path>
                        </g>
                    </g>
                </g>
            </g>
        </g>
    </g>
</svg>