<?xml version="1.0" encoding="UTF-8"?>
<svg width="27px" height="26px" viewBox="0 0 27 26" version="1.1" xmlns="http://www.w3.org/2000/svg" xmlns:xlink="http://www.w3.org/1999/xlink">
    <title>Google logo</title>
    <g id="Main-Site" stroke="none" stroke-width="1" fill="none" fill-rule="evenodd">
        <g id="Sign-up" transform="translate(-788, -825)">
            <g transform="translate(676, 189)" id="Oauth">
                <g transform="translate(50.7679, 572)">
                    <g id="Logos" transform="translate(0.5, 47)">
                        <g id="Google-logo" transform="translate(61.4996, 17)">
                            <path d="M13,5.14583333 C14.9175,5.14583333 16.6345833,5.80666667 17.98875,7.09583333 L21.6991667,3.38541667 C19.4458333,1.28916667 16.5045833,0 13,0 C7.91916667,0 3.52625,2.91416667 1.38666667,7.16083333 L5.70916667,10.51375 C6.73291667,7.43166667 9.60916667,5.14583333 13,5.14583333 Z" id="Path" fill="#EA4335" fill-rule="nonzero"></path>
                            <path d="M25.4475,13.2979167 C25.4475,12.4475 25.36625,11.6241667 25.2416667,10.8333333 L13,10.8333333 L13,15.7191667 L20.0091667,15.7191667 C19.695,17.3225 18.785,18.6875 17.42,19.6083333 L21.6070833,22.8583333 C24.05,20.5941667 25.4475,17.2466667 25.4475,13.2979167 L25.4475,13.2979167 Z" id="Path" fill="#4285F4" fill-rule="nonzero"></path>
                            <path d="M5.70375,15.48625 C5.44375,14.7008333 5.29208333,13.8666667 5.29208333,13 C5.29208333,12.1333333 5.43833333,11.2991667 5.70375,10.51375 L1.38125,7.16083333 C0.498333333,8.91583333 0,10.8983333 0,13 C0,15.1016667 0.498333333,17.0841667 1.38666667,18.8391667 L5.70375,15.48625 Z" id="Path" fill="#FBBC05" fill-rule="nonzero"></path>
                            <path d="M13,26 C16.51,26 19.4620833,24.84625 21.6070833,22.8529167 L17.42,19.6029167 C16.2554167,20.3883333 14.755,20.84875 13,20.84875 C9.60916667,20.84875 6.73291667,18.5629167 5.70375,15.4808333 L1.38125,18.83375 C3.52625,23.0858333 7.91916667,26 13,26 Z" id="Path" fill="#34A853" fill-rule="nonzero"></path>
                            <polygon id="Path" points="0 0 26 0 26 26 0 26"></polygon>
                        </g>
                    </g>
                </g>
            </g>
        </g>
    </g>
</svg>