<?xml version="1.0" encoding="UTF-8"?>
<svg width="24px" height="24px" viewBox="0 0 24 24" version="1.1" xmlns="http://www.w3.org/2000/svg" xmlns:xlink="http://www.w3.org/1999/xlink">
    <title>Logo</title>
    <g id="Main-Site" stroke="none" stroke-width="1" fill="none" fill-rule="evenodd">
        <g id="Sign-up" transform="translate(-1108, -826)" fill="#FFFFFF" fill-rule="nonzero">
            <g transform="translate(676, 189)" id="Oauth">
                <g transform="translate(50.7679, 572)">
                    <g id="Logos" transform="translate(0.5, 47)">
                        <g id="X" transform="translate(318.0007, 0)">
                            <path d="M76.6877524,28.2002634 L85.2500199,18.2475 L83.2210366,18.2475 L75.7864208,26.8893446 L69.8484149,18.2475 L62.9996283,18.2475 L71.9790583,31.3154995 L62.9996283,41.7525 L65.0287266,41.7525 L72.8798724,32.6264183 L79.1508416,41.7525 L85.9996283,41.7525 L76.6872541,28.2002634 L76.6877524,28.2002634 Z M73.9086241,31.4306316 L72.9988208,30.1293535 L65.7598391,19.7749484 L68.8764158,19.7749484 L74.7183583,28.1312838 L75.6281616,29.4325619 L83.2219949,40.294518 L80.1054183,40.294518 L73.9086241,31.43113 L73.9086241,31.4306316 Z" id="Logo"></path>
                        </g>
                    </g>
                </g>
            </g>
        </g>
    </g>
</svg>